<svg xmlns="http://www.w3.org/2000/svg" width="400" height="400" viewBox="0 0 400 400">
<rect x="6.000" y="6.000" width="388.000" height="388.000" rx="24.000" ry="24.000" fill="none" stroke="#ffffff" stroke-width="7.000"/>
<circle cx="60.000" cy="55.000" r="23.000" fill="#ffffff"/>
<circle cx="60.000" cy="345.000" r="23.000" fill="#ffffff"/>
<circle cx="135.000" cy="55.000" r="23.000" fill="#ffffff"/>
<circle cx="135.000" cy="345.000" r="23.000" fill="#ffffff"/>
<circle cx="210.000" cy="55.000" r="23.000" fill="#ffffff"/>
<circle cx="210.000" cy="345.000" r="23.000" fill="#ffffff"/>
<circle cx="285.000" cy="55.000" r="23.000" fill="#ffffff"/>
<circle cx="285.000" cy="345.000" r="23.000" fill="#ffffff"/>
<circle cx="360.000" cy="55.000" r="23.000" fill="#ffffff"/>
<circle cx="360.000" cy="345.000" r="23.000" fill="#ffffff"/>
<circle cx="60.000" cy="135.000" r="18.000" fill="#ffffff"/>
<circle cx="204.000" cy="135.000" r="18.000" fill="#ffffff"/>
<circle cx="60.000" cy="181.000" r="18.000" fill="#ffffff"/>
<circle cx="101.000" cy="181.000" r="18.000" fill="#ffffff"/>
<circle cx="163.000" cy="181.000" r="18.000" fill="#ffffff"/>
<circle cx="204.000" cy="181.000" r="18.000" fill="#ffffff"/>
<circle cx="131.000" cy="216.000" r="18.000" fill="#ffffff"/>
<circle cx="60.000" cy="226.000" r="18.000" fill="#ffffff"/>
<circle cx="204.000" cy="226.000" r="18.000" fill="#ffffff"/>
<circle cx="60.000" cy="273.000" r="18.000" fill="#ffffff"/>
<circle cx="204.000" cy="273.000" r="18.000" fill="#ffffff"/>
<circle cx="277.000" cy="135.000" r="18.000" fill="#ffffff"/>
<circle cx="277.000" cy="181.000" r="18.000" fill="#ffffff"/>
<circle cx="277.000" cy="226.000" r="18.000" fill="#ffffff"/>
<circle cx="277.000" cy="273.000" r="18.000" fill="#ffffff"/>
<circle cx="319.000" cy="273.000" r="18.000" fill="#ffffff"/>
<circle cx="360.000" cy="273.000" r="18.000" fill="#ffffff"/>
</svg>